PathFileType	4	(X/Y/Z)	C:/Users/beibeiliu/ov580/test_trc/User2\sequence.20_training_dense_left.trc
DataRate	CameraRate	NumFrames	NumMarkers	Units	OrigDataRate	OrigDataStartFrame	OrigNumFrames
120	120	17	19	mm	120	1	318
Frame#	Time	ThumbCMC			ThumbMCP			ThumbIP			ThumbTip			IndexMCP			IndexPIP			IndexTip			MiddleMCP			MiddlePIP			MiddleTip			RingMCP			RingPIP			RingTip			PinkyMCP			PinkyPIP			PinkyTip			BackHand1			BackHand2			BackHand3	
		X0	Y0	Z0	X1	Y1	Z1	X2	Y2	Z2	X3	Y3	Z3	X4	Y4	Z4	X5	Y5	Z5	X6	Y6	Z6	X7	Y7	Z7	X8	Y8	Z8	X9	Y9	Z9	X10	Y10	Z10	X11	Y11	Z11	X12	Y12	Z12	X13	Y13	Z13	X14	Y14	Z14	X15	Y15	Z15	X16	Y16	Z16	X17	Y17	Z17	X18	Y18	Z18	
0	0	-138.56	-57.415	76.6949	-118.936	-66.5007	56.686	-95.642	-73.5899	30.9195	-81.016	-82.9455	9.93929	-156.928	-52.9139	-6.00999	-150.79	-54.1788	-32.1697	-147.446	-52.2677	-64.6764	-183.66	-52.6926	-15.6996	-187.637	-55.6554	-45.8414	-193.15	-57.1696	-76.2583	-206.821	-56.1959	-10.2143	-212.404	-58.4431	-32.0302	-217.807	-61.362	-60.305	-231.195	-62.3798	11.294	-238.669	-64.0426	-9.20477	-244.04	-58.738	-34.2076	-203.947	-42.0263	43.5713	-203.467	-31.6713	80.034	-169.228	-35.7912	58.6279	
1	0.00833333	-140.646	-59.0667	74.7702	-118.616	-66.2711	55.7053	-101.39	-75.4261	30.0442	-82.6064	-84.5921	10.3482	-157.828	-53.537	-7.32857	-152.849	-53.8455	-36.2214	-150.218	-53.9476	-65.7224	-183.494	-53.4924	-18.0495	-186.886	-56.3038	-43.3179	-193.709	-58.0333	-76.2946	-211.582	-56.2822	-7.65789	-212.174	-59.9068	-32.3998	-218.68	-61.5372	-65.1264	-228.584	-63.9685	14.8026	-241.143	-63.3322	-13.5671	-247.166	-58.202	-31.5085	-206.56	-43.2435	47.5691	-202.926	-31.6764	77.1631	-168.863	-37.7585	57.1571	
2	0.0166667	-141.121	-59.6431	76.9844	-120.654	-66.9606	58.562	-97.9125	-75.7919	27.5626	-85.9071	-85.2204	13.9841	-152.753	-53.9444	-10.2922	-153.338	-54.5602	-33.9115	-146.773	-54.3399	-61.3594	-185.826	-52.7407	-14.512	-187.527	-56.671	-44.326	-190.74	-57.9598	-74.6382	-206.453	-56.3195	-6.13904	-213.465	-60.3403	-36.6395	-219.81	-62.166	-63.9112	-230.335	-62.4009	13.7402	-240.908	-63.9873	-11.4355	-246.207	-60.4149	-32.9167	-207.291	-42.3986	46.9734	-202.503	-33.2371	77.2344	-170.52	-37.5833	60.1787	
3	0.025	-137.93	-59.0098	72.5891	-121.027	-67.0735	55.5083	-100.148	-76.0229	29.1278	-85.4894	-85.3974	15.2852	-155.615	-53.9487	-9.62376	-149.045	-53.5664	-36.7646	-152.45	-54.6329	-60.574	-183.353	-52.8402	-13.1506	-187.967	-56.4243	-46.2681	-193.555	-57.7964	-75.0359	-206.336	-56.2865	-8.78992	-214.016	-60.0468	-35.0645	-216.624	-61.9665	-59.2127	-225.66	-63.5208	14.2308	-236.031	-62.961	-11.8673	-245.592	-57.6686	-31.8867	-205.521	-43.7281	44.3001	-206.171	-32.6641	76.2425	-168.929	-37.5904	57.2423	
4	0.0333333	-142.285	-59.9994	76.4313	-119.455	-66.8752	54.0085	-97.722	-75.8323	30.4931	-83.2725	-85.3332	13.2766	-152.915	-53.7265	-5.96957	-150.855	-53.9091	-31.5653	-147.671	-53.4736	-59.4902	-181.203	-52.1261	-18.7365	-185.031	-56.9147	-48.5055	-190.376	-57.2213	-73.5849	-210.762	-57.1201	-7.22499	-212.577	-59.6565	-36.4889	-218.878	-62.365	-63.3745	-231.33	-63.1519	12.7178	-234.443	-64.1788	-10.8954	-245.358	-57.503	-31.9934	-206.124	-42.1349	44.9287	-200.404	-32.6723	74.8545	-169.664	-38.7751	57.5981	
5	0.0416667	-141.965	-59.5604	72.6496	-120.848	-66.2331	55.0463	-100.963	-75.5151	26.5664	-84.1135	-85.377	11.5878	-152.49	-53.6198	-4.54343	-153.837	-53.5179	-35.5293	-148.729	-53.0746	-59.2396	-185.29	-52.606	-17.166	-185.449	-55.7595	-45.4388	-193.254	-57.1404	-74.4076	-211.35	-56.2061	-7.02871	-215.585	-59.0202	-35.6741	-219.704	-61.3929	-60.1004	-229.092	-61.8801	12.8622	-234.546	-64.0354	-8.92205	-245.977	-59.3272	-31.8359	-202.979	-41.6888	48.5516	-203.126	-32.7346	77.321	-166.664	-38.2886	59.1849	
6	0.05	-140.038	-58.4796	73.1126	-118.85	-65.835	54.1614	-103.213	-77.1898	30.3678	-88.9447	-85.8589	11.1422	-156.972	-52.6496	-9.70597	-151.183	-53.7016	-31.2906	-151.792	-52.112	-59.5081	-186.738	-52.1278	-17.5663	-185.666	-55.4646	-43.0845	-191.747	-55.4634	-76.1859	-206.776	-55.5241	-5.25716	-214.221	-58.5626	-32.8651	-216.576	-59.368	-64.251	-231.856	-61.9001	13.0314	-238.791	-62.5297	-13.6529	-246.221	-57.8212	-33.3203	-202.593	-43.4508	49.2441	-205.126	-32.0497	79.1295	-170.402	-35.869	60.3925	
7	0.0583333	-140.252	-57.2236	76.9374	-119.512	-65.5849	56.0704	-100.126	-74.7228	25.0316	-87.3963	-85.0912	8.52753	-156.135	-51.2054	-9.18753	-150.947	-52.2606	-36.9403	-153.464	-50.7657	-60.5096	-184.99	-51.3483	-18.0044	-186.993	-54.6769	-44.6819	-188.887	-55.3417	-79.8587	-206.622	-54.6721	-7.28104	-216.45	-58.0855	-33.7522	-218.444	-59.7148	-61.0302	-231.542	-60.0373	10.2292	-236.554	-62.266	-11.0769	-245.863	-56.9583	-37.2175	-208.014	-42.3464	48.7175	-205.066	-32.0963	76.6456	-167.483	-34.6447	58.5398	
8	0.0666667	-140.065	-58.6717	73.1046	-120.105	-66.5951	51.9298	-105.383	-77.1006	24.7584	-94.1351	-87.7267	0.834316	-156.023	-51.4956	-7.86794	-152.808	-51.4852	-38.5581	-149.178	-50.3298	-65.9161	-183.603	-50.1979	-15.4844	-189.264	-53.59	-48.9998	-190.838	-54.8832	-78.0067	-208.241	-53.9222	-9.58154	-215.105	-56.9694	-34.2384	-214.868	-58.9011	-64.9563	-230.364	-60.5817	13.7152	-235.224	-61.8665	-11.1065	-244.638	-56.4705	-35.9617	-204.783	-42.9098	46.135	-204.859	-32.1719	78.8784	-168.751	-36.8854	59.0218	
9	0.075	-142.033	-58.8659	74.485	-115.675	-66.6717	52.0545	-102.51	-78.4055	24.525	-103.487	-92.2644	1.56925	-155.254	-51.9755	-9.48017	-156.276	-51.8214	-34.1954	-154.692	-49.4084	-63.19	-181.797	-49.9107	-18.2421	-184.329	-52.8213	-47.3621	-189.36	-54.6807	-76.9578	-204.602	-53.4125	-11.4532	-215.083	-55.9738	-32.9475	-215.651	-58.8352	-63.3704	-225.12	-60.9655	12.9541	-235.692	-61.2997	-14.5092	-240.777	-57.6885	-36.928	-207.122	-41.8372	46.3351	-204.171	-31.6612	74.2534	-167.326	-36.4842	59.2732	
10	0.0833333	-139.619	-58.8231	72.6369	-117.353	-67.813	52.3185	-108.404	-82.6404	21.1502	-114.311	-96.4273	-4.06258	-158.167	-52.7487	-10.2862	-154.687	-52.2588	-35.3691	-157.408	-49.5735	-65.5124	-182.737	-50.4212	-19.7625	-184.745	-53.7614	-46.3112	-192.61	-54.3803	-76.4733	-210.11	-54.5242	-8.96626	-213.568	-56.4905	-33.6367	-213.904	-57.8082	-64.9286	-224.666	-61.2945	12.1361	-233.462	-60.9531	-14.6193	-238.751	-58.3951	-37.2432	-206.472	-42.1448	46.5093	-203.111	-33.3246	73.3123	-168.912	-36.424	57.9134	
11	0.0916667	-142.665	-60.6632	75.5615	-114.356	-69.6173	52.7156	-111.692	-86.0018	20.3596	-130.093	-98.8831	0.96981	-156.589	-52.093	-10.2066	-155.631	-51.0961	-37.4684	-158.885	-49.515	-61.6434	-181.595	-50.2826	-16.6219	-186.002	-52.2433	-47.8333	-189.853	-52.049	-79.732	-207.21	-53.8211	-7.23496	-208.683	-56.251	-33.4549	-213.683	-56.5689	-61.2402	-222.533	-59.2817	6.64798	-229.027	-61.5867	-13.5221	-237.954	-56.4878	-39.0842	-205.309	-40.1297	44.2631	-204.441	-30.9105	75.0773	-165.3	-38.8038	56.6994	
12	0.1	-142.84	-59.9176	71.3148	-121.096	-71.9834	51.6621	-119.264	-90.5597	18.9618	-144.172	-100.622	1.44396	-156.38	-51.4267	-10.966	-155.043	-50.567	-36.4083	-159.633	-49.2981	-60.4759	-179.028	-50.195	-18.5883	-184.37	-52.0506	-49.0655	-189.051	-50.7082	-75.35	-207.476	-52.1497	-8.974	-205.84	-54.8244	-36.9353	-210.148	-55.4947	-63.3642	-224.907	-58.9962	10.7637	-228.369	-60.492	-13.5216	-231.865	-54.9275	-41.1892	-200.859	-42.0103	43.0082	-201.36	-30.6334	77.1691	-167.068	-38.0578	59.1939	
13	0.108333	-141.625	-61.4808	75.1209	-119.928	-74.6535	47.5328	-129.228	-92.4113	15.8521	-159.493	-99.8841	6.30159	-161.124	-50.9112	-6.89396	-159.848	-49.2192	-33.097	-163.863	-47.416	-64.0277	-180.67	-48.2192	-20.0484	-182.245	-50.8235	-48.5257	-186.012	-49.665	-75.0259	-203.952	-51.3139	-11.278	-206.405	-54.0456	-33.501	-206.936	-54.9372	-62.2168	-220.361	-57.1238	6.13299	-226.657	-59.427	-19.8747	-226.27	-56.0115	-42.0698	-202.084	-41.2505	43.1737	-201.27	-28.527	74.3485	-166.802	-34.6011	60.7323	
14	0.116667	-140.9	-60.0377	73.4542	-122.378	-75.7668	48.0849	-135.163	-94.2523	16.4586	-166.719	-98.2184	10.3363	-163.388	-49.0391	-9.83253	-164.446	-48.0989	-34.8286	-167.841	-47.3893	-63.5594	-180.781	-47.5948	-16.765	-183.016	-49.8289	-47.2032	-189.969	-48.1553	-80.5137	-203.961	-50.7404	-10.4581	-206.647	-52.9987	-36.1199	-205.616	-55.1036	-62.0689	-224.708	-56.7674	5.54745	-226.099	-59.4115	-15.5832	-226.486	-55.1786	-44.1952	-207.026	-38.2702	45.8337	-201.908	-30.4456	74.2089	-169.292	-34.4795	57.9071	
15	0.125	-142.652	-60.3856	71.6394	-127.519	-75.7956	43.8433	-143.6	-92.9031	11.622	-171.621	-98.983	9.03487	-163.126	-48.0927	-9.50482	-163.851	-46.9502	-36.7507	-174.006	-44.7977	-66.2354	-186.212	-46.1244	-16.525	-185.513	-48.4915	-50.7222	-191.738	-47.2627	-77.3336	-206.866	-49.8541	-9.38649	-206.852	-53.3195	-35.1875	-209.128	-54.5767	-63.7863	-226.119	-57.218	5.98396	-223.883	-60.5602	-17.5833	-222.763	-56.8457	-43.2147	-206.126	-39.663	42.6822	-203.756	-29.3071	74.4396	-168.557	-32.5843	54.4319	
16	0.133333	-143.226	-58.4852	71.2501	-129.479	-74.7803	38.7764	-145.45	-91.4078	12.5619	-178.224	-94.0968	8.13555	-165.962	-46.6644	-8.76195	-171.104	-46.0493	-39.7625	-176.214	-43.9557	-64.6961	-189.997	-46.2376	-16.413	-192.903	-47.8193	-49.2794	-197.1	-46.766	-77.3414	-205.712	-50.524	-12.0466	-211.528	-52.0189	-38.5092	-212.035	-52.3848	-68.4028	-225.553	-58.1155	4.06063	-225.643	-60.8446	-17.9976	-224.84	-58.3764	-42.1654	-208.382	-37.836	46.0309	-204.535	-27.6924	71.671	-172.296	-31.5276	52.9846	
